<mxfile host="app.diagrams.net" modified="2023-08-03T01:42:24.255Z" agent="Mozilla/5.0 (Windows NT 10.0; Win64; x64) AppleWebKit/537.36 (KHTML, like Gecko) Chrome/115.0.0.0 Safari/537.36" etag="zvUhvOBgSTv-5QuMsbRN" version="21.6.6" type="device">
  <diagram id="R2lEEEUBdFMjLlhIrx00" name="Page-1">
    <mxGraphModel dx="1767" dy="1806" grid="1" gridSize="10" guides="1" tooltips="1" connect="1" arrows="1" fold="1" page="1" pageScale="1" pageWidth="850" pageHeight="1100" math="0" shadow="0" extFonts="Permanent Marker^https://fonts.googleapis.com/css?family=Permanent+Marker">
      <root>
        <mxCell id="0" />
        <mxCell id="1" parent="0" />
        <mxCell id="LKQd745F_ikGPeZQAdQr-37" style="edgeStyle=orthogonalEdgeStyle;rounded=0;orthogonalLoop=1;jettySize=auto;html=1;exitX=0.5;exitY=0;exitDx=0;exitDy=0;strokeColor=#A8201A;fontColor=#143642;fillColor=#FAE5C7;startArrow=ERmandOne;startFill=0;endArrow=ERmandOne;endFill=0;entryX=0.742;entryY=1.022;entryDx=0;entryDy=0;entryPerimeter=0;" edge="1" parent="1" source="WESZsXD_C6nbsdCVMqgl-12" target="LKQd745F_ikGPeZQAdQr-5">
          <mxGeometry relative="1" as="geometry">
            <mxPoint x="790" y="-630" as="targetPoint" />
            <Array as="points">
              <mxPoint x="760" y="-610" />
              <mxPoint x="785" y="-610" />
            </Array>
          </mxGeometry>
        </mxCell>
        <mxCell id="WESZsXD_C6nbsdCVMqgl-12" value="Appointment" style="shape=table;startSize=30;container=1;collapsible=1;childLayout=tableLayout;fixedRows=1;rowLines=0;fontStyle=1;align=center;resizeLast=1;labelBackgroundColor=none;fillColor=#FAE5C7;strokeColor=#0F8B8D;fontColor=#143642;" parent="1" vertex="1">
          <mxGeometry x="635" y="-571" width="250" height="170" as="geometry" />
        </mxCell>
        <mxCell id="WESZsXD_C6nbsdCVMqgl-13" value="" style="shape=partialRectangle;collapsible=0;dropTarget=0;pointerEvents=0;fillColor=none;points=[[0,0.5],[1,0.5]];portConstraint=eastwest;top=0;left=0;right=0;bottom=1;labelBackgroundColor=none;strokeColor=#0F8B8D;fontColor=#143642;" parent="WESZsXD_C6nbsdCVMqgl-12" vertex="1">
          <mxGeometry y="30" width="250" height="30" as="geometry" />
        </mxCell>
        <mxCell id="WESZsXD_C6nbsdCVMqgl-14" value="PK" style="shape=partialRectangle;overflow=hidden;connectable=0;fillColor=none;top=0;left=0;bottom=0;right=0;fontStyle=1;labelBackgroundColor=none;strokeColor=#0F8B8D;fontColor=#143642;" parent="WESZsXD_C6nbsdCVMqgl-13" vertex="1">
          <mxGeometry width="30" height="30" as="geometry">
            <mxRectangle width="30" height="30" as="alternateBounds" />
          </mxGeometry>
        </mxCell>
        <mxCell id="WESZsXD_C6nbsdCVMqgl-15" value="appointment_id int NOT NULL " style="shape=partialRectangle;overflow=hidden;connectable=0;fillColor=none;top=0;left=0;bottom=0;right=0;align=left;spacingLeft=6;fontStyle=5;labelBackgroundColor=none;strokeColor=#0F8B8D;fontColor=#143642;" parent="WESZsXD_C6nbsdCVMqgl-13" vertex="1">
          <mxGeometry x="30" width="220" height="30" as="geometry">
            <mxRectangle width="220" height="30" as="alternateBounds" />
          </mxGeometry>
        </mxCell>
        <mxCell id="WESZsXD_C6nbsdCVMqgl-16" value="" style="shape=partialRectangle;collapsible=0;dropTarget=0;pointerEvents=0;fillColor=none;points=[[0,0.5],[1,0.5]];portConstraint=eastwest;top=0;left=0;right=0;bottom=0;labelBackgroundColor=none;strokeColor=#0F8B8D;fontColor=#143642;" parent="WESZsXD_C6nbsdCVMqgl-12" vertex="1">
          <mxGeometry y="60" width="250" height="110" as="geometry" />
        </mxCell>
        <mxCell id="WESZsXD_C6nbsdCVMqgl-17" value="" style="shape=partialRectangle;overflow=hidden;connectable=0;fillColor=none;top=0;left=0;bottom=0;right=0;labelBackgroundColor=none;strokeColor=#0F8B8D;fontColor=#143642;" parent="WESZsXD_C6nbsdCVMqgl-16" vertex="1">
          <mxGeometry width="30" height="110" as="geometry">
            <mxRectangle width="30" height="110" as="alternateBounds" />
          </mxGeometry>
        </mxCell>
        <mxCell id="WESZsXD_C6nbsdCVMqgl-18" value="doctor_id&#xa;patient_id&#xa;date_id&#xa;time_id&#xa;remarks&#xa;status_id" style="shape=partialRectangle;overflow=hidden;connectable=0;fillColor=none;top=0;left=0;bottom=0;right=0;align=left;spacingLeft=6;labelBackgroundColor=none;strokeColor=#0F8B8D;fontColor=#143642;" parent="WESZsXD_C6nbsdCVMqgl-16" vertex="1">
          <mxGeometry x="30" width="220" height="110" as="geometry">
            <mxRectangle width="220" height="110" as="alternateBounds" />
          </mxGeometry>
        </mxCell>
        <mxCell id="LKQd745F_ikGPeZQAdQr-35" style="edgeStyle=orthogonalEdgeStyle;rounded=0;orthogonalLoop=1;jettySize=auto;html=1;exitX=0.5;exitY=0;exitDx=0;exitDy=0;entryX=0.441;entryY=1.034;entryDx=0;entryDy=0;entryPerimeter=0;strokeColor=#A8201A;fontColor=#143642;fillColor=#FAE5C7;endArrow=ERmandOne;endFill=0;startArrow=ERoneToMany;startFill=0;" edge="1" parent="1" source="WESZsXD_C6nbsdCVMqgl-25" target="LKQd745F_ikGPeZQAdQr-5">
          <mxGeometry relative="1" as="geometry">
            <Array as="points">
              <mxPoint x="365" y="-660" />
              <mxPoint x="535" y="-660" />
              <mxPoint x="535" y="-590" />
              <mxPoint x="710" y="-590" />
            </Array>
          </mxGeometry>
        </mxCell>
        <mxCell id="WESZsXD_C6nbsdCVMqgl-25" value="Date" style="shape=table;startSize=30;container=1;collapsible=1;childLayout=tableLayout;fixedRows=1;rowLines=0;fontStyle=1;align=center;resizeLast=1;labelBackgroundColor=none;fillColor=#FAE5C7;strokeColor=#0F8B8D;fontColor=#143642;" parent="1" vertex="1">
          <mxGeometry x="240" y="-633" width="250" height="140" as="geometry" />
        </mxCell>
        <mxCell id="WESZsXD_C6nbsdCVMqgl-26" value="" style="shape=partialRectangle;collapsible=0;dropTarget=0;pointerEvents=0;fillColor=none;points=[[0,0.5],[1,0.5]];portConstraint=eastwest;top=0;left=0;right=0;bottom=1;labelBackgroundColor=none;strokeColor=#0F8B8D;fontColor=#143642;" parent="WESZsXD_C6nbsdCVMqgl-25" vertex="1">
          <mxGeometry y="30" width="250" height="30" as="geometry" />
        </mxCell>
        <mxCell id="WESZsXD_C6nbsdCVMqgl-27" value="PK" style="shape=partialRectangle;overflow=hidden;connectable=0;fillColor=none;top=0;left=0;bottom=0;right=0;fontStyle=1;labelBackgroundColor=none;strokeColor=#0F8B8D;fontColor=#143642;" parent="WESZsXD_C6nbsdCVMqgl-26" vertex="1">
          <mxGeometry width="30" height="30" as="geometry">
            <mxRectangle width="30" height="30" as="alternateBounds" />
          </mxGeometry>
        </mxCell>
        <mxCell id="WESZsXD_C6nbsdCVMqgl-28" value="schedule_id int NOT NULL " style="shape=partialRectangle;overflow=hidden;connectable=0;fillColor=none;top=0;left=0;bottom=0;right=0;align=left;spacingLeft=6;fontStyle=5;labelBackgroundColor=none;strokeColor=#0F8B8D;fontColor=#143642;" parent="WESZsXD_C6nbsdCVMqgl-26" vertex="1">
          <mxGeometry x="30" width="220" height="30" as="geometry">
            <mxRectangle width="220" height="30" as="alternateBounds" />
          </mxGeometry>
        </mxCell>
        <mxCell id="WESZsXD_C6nbsdCVMqgl-29" value="" style="shape=partialRectangle;collapsible=0;dropTarget=0;pointerEvents=0;fillColor=none;points=[[0,0.5],[1,0.5]];portConstraint=eastwest;top=0;left=0;right=0;bottom=0;labelBackgroundColor=none;strokeColor=#0F8B8D;fontColor=#143642;" parent="WESZsXD_C6nbsdCVMqgl-25" vertex="1">
          <mxGeometry y="60" width="250" height="80" as="geometry" />
        </mxCell>
        <mxCell id="WESZsXD_C6nbsdCVMqgl-30" value="" style="shape=partialRectangle;overflow=hidden;connectable=0;fillColor=none;top=0;left=0;bottom=0;right=0;labelBackgroundColor=none;strokeColor=#0F8B8D;fontColor=#143642;" parent="WESZsXD_C6nbsdCVMqgl-29" vertex="1">
          <mxGeometry width="30" height="80" as="geometry">
            <mxRectangle width="30" height="80" as="alternateBounds" />
          </mxGeometry>
        </mxCell>
        <mxCell id="WESZsXD_C6nbsdCVMqgl-31" value="doctor_id&#xa;date_available" style="shape=partialRectangle;overflow=hidden;connectable=0;fillColor=none;top=0;left=0;bottom=0;right=0;align=left;spacingLeft=6;labelBackgroundColor=none;strokeColor=#0F8B8D;fontColor=#143642;" parent="WESZsXD_C6nbsdCVMqgl-29" vertex="1">
          <mxGeometry x="30" width="220" height="80" as="geometry">
            <mxRectangle width="220" height="80" as="alternateBounds" />
          </mxGeometry>
        </mxCell>
        <mxCell id="LKQd745F_ikGPeZQAdQr-36" style="edgeStyle=orthogonalEdgeStyle;rounded=0;orthogonalLoop=1;jettySize=auto;html=1;exitX=0.141;exitY=-0.017;exitDx=0;exitDy=0;strokeColor=#A8201A;fontColor=#143642;fillColor=#FAE5C7;endArrow=ERmandOne;endFill=0;startArrow=ERoneToMany;startFill=0;exitPerimeter=0;" edge="1" parent="1" source="WESZsXD_C6nbsdCVMqgl-34" target="LKQd745F_ikGPeZQAdQr-5">
          <mxGeometry relative="1" as="geometry">
            <mxPoint x="205" y="-480" as="sourcePoint" />
          </mxGeometry>
        </mxCell>
        <mxCell id="WESZsXD_C6nbsdCVMqgl-34" value="Time" style="shape=table;startSize=30;container=1;collapsible=1;childLayout=tableLayout;fixedRows=1;rowLines=0;fontStyle=1;align=center;resizeLast=1;labelBackgroundColor=none;fillColor=#FAE5C7;strokeColor=#0F8B8D;fontColor=#143642;" parent="1" vertex="1">
          <mxGeometry x="160" y="-401" width="250" height="130" as="geometry" />
        </mxCell>
        <mxCell id="WESZsXD_C6nbsdCVMqgl-35" value="" style="shape=partialRectangle;collapsible=0;dropTarget=0;pointerEvents=0;fillColor=none;points=[[0,0.5],[1,0.5]];portConstraint=eastwest;top=0;left=0;right=0;bottom=1;labelBackgroundColor=none;strokeColor=#0F8B8D;fontColor=#143642;" parent="WESZsXD_C6nbsdCVMqgl-34" vertex="1">
          <mxGeometry y="30" width="250" height="30" as="geometry" />
        </mxCell>
        <mxCell id="WESZsXD_C6nbsdCVMqgl-36" value="PK" style="shape=partialRectangle;overflow=hidden;connectable=0;fillColor=none;top=0;left=0;bottom=0;right=0;fontStyle=1;labelBackgroundColor=none;strokeColor=#0F8B8D;fontColor=#143642;" parent="WESZsXD_C6nbsdCVMqgl-35" vertex="1">
          <mxGeometry width="30" height="30" as="geometry">
            <mxRectangle width="30" height="30" as="alternateBounds" />
          </mxGeometry>
        </mxCell>
        <mxCell id="WESZsXD_C6nbsdCVMqgl-37" value="timeslot_id int NOT NULL " style="shape=partialRectangle;overflow=hidden;connectable=0;fillColor=none;top=0;left=0;bottom=0;right=0;align=left;spacingLeft=6;fontStyle=5;labelBackgroundColor=none;strokeColor=#0F8B8D;fontColor=#143642;" parent="WESZsXD_C6nbsdCVMqgl-35" vertex="1">
          <mxGeometry x="30" width="220" height="30" as="geometry">
            <mxRectangle width="220" height="30" as="alternateBounds" />
          </mxGeometry>
        </mxCell>
        <mxCell id="WESZsXD_C6nbsdCVMqgl-38" value="" style="shape=partialRectangle;collapsible=0;dropTarget=0;pointerEvents=0;fillColor=none;points=[[0,0.5],[1,0.5]];portConstraint=eastwest;top=0;left=0;right=0;bottom=0;labelBackgroundColor=none;strokeColor=#0F8B8D;fontColor=#143642;" parent="WESZsXD_C6nbsdCVMqgl-34" vertex="1">
          <mxGeometry y="60" width="250" height="70" as="geometry" />
        </mxCell>
        <mxCell id="WESZsXD_C6nbsdCVMqgl-39" value="" style="shape=partialRectangle;overflow=hidden;connectable=0;fillColor=none;top=0;left=0;bottom=0;right=0;labelBackgroundColor=none;strokeColor=#0F8B8D;fontColor=#143642;" parent="WESZsXD_C6nbsdCVMqgl-38" vertex="1">
          <mxGeometry width="30" height="70" as="geometry">
            <mxRectangle width="30" height="70" as="alternateBounds" />
          </mxGeometry>
        </mxCell>
        <mxCell id="WESZsXD_C6nbsdCVMqgl-40" value="doctor_id&#xa;time_available" style="shape=partialRectangle;overflow=hidden;connectable=0;fillColor=none;top=0;left=0;bottom=0;right=0;align=left;spacingLeft=6;labelBackgroundColor=none;strokeColor=#0F8B8D;fontColor=#143642;" parent="WESZsXD_C6nbsdCVMqgl-38" vertex="1">
          <mxGeometry x="30" width="220" height="70" as="geometry">
            <mxRectangle width="220" height="70" as="alternateBounds" />
          </mxGeometry>
        </mxCell>
        <mxCell id="LKQd745F_ikGPeZQAdQr-1" value="Users" style="shape=table;startSize=30;container=1;collapsible=1;childLayout=tableLayout;fixedRows=1;rowLines=0;fontStyle=1;align=center;resizeLast=1;labelBackgroundColor=none;fillColor=#FAE5C7;strokeColor=#0F8B8D;fontColor=#143642;" vertex="1" parent="1">
          <mxGeometry x="600" y="-940" width="250" height="270.0000000000002" as="geometry" />
        </mxCell>
        <mxCell id="LKQd745F_ikGPeZQAdQr-2" value="" style="shape=partialRectangle;collapsible=0;dropTarget=0;pointerEvents=0;fillColor=none;points=[[0,0.5],[1,0.5]];portConstraint=eastwest;top=0;left=0;right=0;bottom=1;labelBackgroundColor=none;strokeColor=#0F8B8D;fontColor=#143642;" vertex="1" parent="LKQd745F_ikGPeZQAdQr-1">
          <mxGeometry y="30" width="250" height="30" as="geometry" />
        </mxCell>
        <mxCell id="LKQd745F_ikGPeZQAdQr-3" value="PK" style="shape=partialRectangle;overflow=hidden;connectable=0;fillColor=none;top=0;left=0;bottom=0;right=0;fontStyle=1;labelBackgroundColor=none;strokeColor=#0F8B8D;fontColor=#143642;" vertex="1" parent="LKQd745F_ikGPeZQAdQr-2">
          <mxGeometry width="30" height="30" as="geometry">
            <mxRectangle width="30" height="30" as="alternateBounds" />
          </mxGeometry>
        </mxCell>
        <mxCell id="LKQd745F_ikGPeZQAdQr-4" value="user_id int NOT NULL " style="shape=partialRectangle;overflow=hidden;connectable=0;fillColor=none;top=0;left=0;bottom=0;right=0;align=left;spacingLeft=6;fontStyle=5;labelBackgroundColor=none;strokeColor=#0F8B8D;fontColor=#143642;" vertex="1" parent="LKQd745F_ikGPeZQAdQr-2">
          <mxGeometry x="30" width="220" height="30" as="geometry">
            <mxRectangle width="220" height="30" as="alternateBounds" />
          </mxGeometry>
        </mxCell>
        <mxCell id="LKQd745F_ikGPeZQAdQr-5" value="" style="shape=partialRectangle;collapsible=0;dropTarget=0;pointerEvents=0;fillColor=none;points=[[0,0.5],[1,0.5]];portConstraint=eastwest;top=0;left=0;right=0;bottom=0;labelBackgroundColor=none;strokeColor=#0F8B8D;fontColor=#143642;" vertex="1" parent="LKQd745F_ikGPeZQAdQr-1">
          <mxGeometry y="60" width="250" height="210" as="geometry" />
        </mxCell>
        <mxCell id="LKQd745F_ikGPeZQAdQr-6" value="" style="shape=partialRectangle;overflow=hidden;connectable=0;fillColor=none;top=0;left=0;bottom=0;right=0;labelBackgroundColor=none;strokeColor=#0F8B8D;fontColor=#143642;" vertex="1" parent="LKQd745F_ikGPeZQAdQr-5">
          <mxGeometry width="30" height="210" as="geometry">
            <mxRectangle width="30" height="210" as="alternateBounds" />
          </mxGeometry>
        </mxCell>
        <mxCell id="LKQd745F_ikGPeZQAdQr-7" value="firstname&#xa;lastname&#xa;mi&#xa;specialization&#xa;username&#xa;password&#xa;role_id&#xa;email&#xa;contact_number&#xa;address&#xa;room_number&#xa;profile" style="shape=partialRectangle;overflow=hidden;connectable=0;fillColor=none;top=0;left=0;bottom=0;right=0;align=left;spacingLeft=6;labelBackgroundColor=none;strokeColor=#0F8B8D;fontColor=#143642;" vertex="1" parent="LKQd745F_ikGPeZQAdQr-5">
          <mxGeometry x="30" width="220" height="210" as="geometry">
            <mxRectangle width="220" height="210" as="alternateBounds" />
          </mxGeometry>
        </mxCell>
        <mxCell id="LKQd745F_ikGPeZQAdQr-8" value="Roles" style="shape=table;startSize=30;container=1;collapsible=1;childLayout=tableLayout;fixedRows=1;rowLines=0;fontStyle=1;align=center;resizeLast=1;labelBackgroundColor=none;fillColor=#FAE5C7;strokeColor=#0F8B8D;fontColor=#143642;" vertex="1" parent="1">
          <mxGeometry x="1009" y="-859.5" width="250" height="110" as="geometry" />
        </mxCell>
        <mxCell id="LKQd745F_ikGPeZQAdQr-9" value="" style="shape=partialRectangle;collapsible=0;dropTarget=0;pointerEvents=0;fillColor=none;points=[[0,0.5],[1,0.5]];portConstraint=eastwest;top=0;left=0;right=0;bottom=1;labelBackgroundColor=none;strokeColor=#0F8B8D;fontColor=#143642;" vertex="1" parent="LKQd745F_ikGPeZQAdQr-8">
          <mxGeometry y="30" width="250" height="30" as="geometry" />
        </mxCell>
        <mxCell id="LKQd745F_ikGPeZQAdQr-10" value="PK" style="shape=partialRectangle;overflow=hidden;connectable=0;fillColor=none;top=0;left=0;bottom=0;right=0;fontStyle=1;labelBackgroundColor=none;strokeColor=#0F8B8D;fontColor=#143642;" vertex="1" parent="LKQd745F_ikGPeZQAdQr-9">
          <mxGeometry width="30" height="30" as="geometry">
            <mxRectangle width="30" height="30" as="alternateBounds" />
          </mxGeometry>
        </mxCell>
        <mxCell id="LKQd745F_ikGPeZQAdQr-11" value="role_id int NOT NULL " style="shape=partialRectangle;overflow=hidden;connectable=0;fillColor=none;top=0;left=0;bottom=0;right=0;align=left;spacingLeft=6;fontStyle=5;labelBackgroundColor=none;strokeColor=#0F8B8D;fontColor=#143642;" vertex="1" parent="LKQd745F_ikGPeZQAdQr-9">
          <mxGeometry x="30" width="220" height="30" as="geometry">
            <mxRectangle width="220" height="30" as="alternateBounds" />
          </mxGeometry>
        </mxCell>
        <mxCell id="LKQd745F_ikGPeZQAdQr-12" value="" style="shape=partialRectangle;collapsible=0;dropTarget=0;pointerEvents=0;fillColor=none;points=[[0,0.5],[1,0.5]];portConstraint=eastwest;top=0;left=0;right=0;bottom=0;labelBackgroundColor=none;strokeColor=#0F8B8D;fontColor=#143642;" vertex="1" parent="LKQd745F_ikGPeZQAdQr-8">
          <mxGeometry y="60" width="250" height="50" as="geometry" />
        </mxCell>
        <mxCell id="LKQd745F_ikGPeZQAdQr-13" value="" style="shape=partialRectangle;overflow=hidden;connectable=0;fillColor=none;top=0;left=0;bottom=0;right=0;labelBackgroundColor=none;strokeColor=#0F8B8D;fontColor=#143642;" vertex="1" parent="LKQd745F_ikGPeZQAdQr-12">
          <mxGeometry width="30" height="50" as="geometry">
            <mxRectangle width="30" height="50" as="alternateBounds" />
          </mxGeometry>
        </mxCell>
        <mxCell id="LKQd745F_ikGPeZQAdQr-14" value="role&#xa;description" style="shape=partialRectangle;overflow=hidden;connectable=0;fillColor=none;top=0;left=0;bottom=0;right=0;align=left;spacingLeft=6;labelBackgroundColor=none;strokeColor=#0F8B8D;fontColor=#143642;" vertex="1" parent="LKQd745F_ikGPeZQAdQr-12">
          <mxGeometry x="30" width="220" height="50" as="geometry">
            <mxRectangle width="220" height="50" as="alternateBounds" />
          </mxGeometry>
        </mxCell>
        <mxCell id="LKQd745F_ikGPeZQAdQr-16" style="edgeStyle=orthogonalEdgeStyle;rounded=0;orthogonalLoop=1;jettySize=auto;html=1;exitX=0;exitY=0.5;exitDx=0;exitDy=0;startArrow=ERmandOne;startFill=0;endArrow=ERmandOne;endFill=0;labelBackgroundColor=none;strokeColor=#A8201A;fontColor=default;" edge="1" parent="1" source="LKQd745F_ikGPeZQAdQr-12" target="LKQd745F_ikGPeZQAdQr-5">
          <mxGeometry relative="1" as="geometry" />
        </mxCell>
        <mxCell id="LKQd745F_ikGPeZQAdQr-27" value="Statuses" style="shape=table;startSize=30;container=1;collapsible=1;childLayout=tableLayout;fixedRows=1;rowLines=0;fontStyle=1;align=center;resizeLast=1;labelBackgroundColor=none;fillColor=#FAE5C7;strokeColor=#0F8B8D;fontColor=#143642;" vertex="1" parent="1">
          <mxGeometry x="1009" y="-535" width="250" height="100" as="geometry" />
        </mxCell>
        <mxCell id="LKQd745F_ikGPeZQAdQr-28" value="" style="shape=partialRectangle;collapsible=0;dropTarget=0;pointerEvents=0;fillColor=none;points=[[0,0.5],[1,0.5]];portConstraint=eastwest;top=0;left=0;right=0;bottom=1;labelBackgroundColor=none;strokeColor=#0F8B8D;fontColor=#143642;" vertex="1" parent="LKQd745F_ikGPeZQAdQr-27">
          <mxGeometry y="30" width="250" height="30" as="geometry" />
        </mxCell>
        <mxCell id="LKQd745F_ikGPeZQAdQr-29" value="PK" style="shape=partialRectangle;overflow=hidden;connectable=0;fillColor=none;top=0;left=0;bottom=0;right=0;fontStyle=1;labelBackgroundColor=none;strokeColor=#0F8B8D;fontColor=#143642;" vertex="1" parent="LKQd745F_ikGPeZQAdQr-28">
          <mxGeometry width="30" height="30" as="geometry">
            <mxRectangle width="30" height="30" as="alternateBounds" />
          </mxGeometry>
        </mxCell>
        <mxCell id="LKQd745F_ikGPeZQAdQr-30" value="status_id int NOT NULL " style="shape=partialRectangle;overflow=hidden;connectable=0;fillColor=none;top=0;left=0;bottom=0;right=0;align=left;spacingLeft=6;fontStyle=5;labelBackgroundColor=none;strokeColor=#0F8B8D;fontColor=#143642;" vertex="1" parent="LKQd745F_ikGPeZQAdQr-28">
          <mxGeometry x="30" width="220" height="30" as="geometry">
            <mxRectangle width="220" height="30" as="alternateBounds" />
          </mxGeometry>
        </mxCell>
        <mxCell id="LKQd745F_ikGPeZQAdQr-31" value="" style="shape=partialRectangle;collapsible=0;dropTarget=0;pointerEvents=0;fillColor=none;points=[[0,0.5],[1,0.5]];portConstraint=eastwest;top=0;left=0;right=0;bottom=0;labelBackgroundColor=none;strokeColor=#0F8B8D;fontColor=#143642;" vertex="1" parent="LKQd745F_ikGPeZQAdQr-27">
          <mxGeometry y="60" width="250" height="40" as="geometry" />
        </mxCell>
        <mxCell id="LKQd745F_ikGPeZQAdQr-32" value="" style="shape=partialRectangle;overflow=hidden;connectable=0;fillColor=none;top=0;left=0;bottom=0;right=0;labelBackgroundColor=none;strokeColor=#0F8B8D;fontColor=#143642;" vertex="1" parent="LKQd745F_ikGPeZQAdQr-31">
          <mxGeometry width="30" height="40" as="geometry">
            <mxRectangle width="30" height="40" as="alternateBounds" />
          </mxGeometry>
        </mxCell>
        <mxCell id="LKQd745F_ikGPeZQAdQr-33" value="status" style="shape=partialRectangle;overflow=hidden;connectable=0;fillColor=none;top=0;left=0;bottom=0;right=0;align=left;spacingLeft=6;labelBackgroundColor=none;strokeColor=#0F8B8D;fontColor=#143642;" vertex="1" parent="LKQd745F_ikGPeZQAdQr-31">
          <mxGeometry x="30" width="220" height="40" as="geometry">
            <mxRectangle width="220" height="40" as="alternateBounds" />
          </mxGeometry>
        </mxCell>
        <mxCell id="LKQd745F_ikGPeZQAdQr-38" style="edgeStyle=orthogonalEdgeStyle;rounded=0;orthogonalLoop=1;jettySize=auto;html=1;strokeColor=#A8201A;fontColor=#143642;fillColor=#FAE5C7;startArrow=ERmandOne;startFill=0;endArrow=ERmandOne;endFill=0;" edge="1" parent="1" source="LKQd745F_ikGPeZQAdQr-31" target="WESZsXD_C6nbsdCVMqgl-16">
          <mxGeometry relative="1" as="geometry" />
        </mxCell>
        <mxCell id="LKQd745F_ikGPeZQAdQr-39" style="edgeStyle=orthogonalEdgeStyle;rounded=0;orthogonalLoop=1;jettySize=auto;html=1;exitX=1;exitY=0.5;exitDx=0;exitDy=0;strokeColor=#A8201A;fontColor=#143642;fillColor=#FAE5C7;startArrow=ERmandOne;startFill=0;endArrow=ERmandOne;endFill=0;" edge="1" parent="1" source="WESZsXD_C6nbsdCVMqgl-29" target="WESZsXD_C6nbsdCVMqgl-16">
          <mxGeometry relative="1" as="geometry" />
        </mxCell>
        <mxCell id="LKQd745F_ikGPeZQAdQr-40" style="edgeStyle=orthogonalEdgeStyle;rounded=0;orthogonalLoop=1;jettySize=auto;html=1;entryX=0.012;entryY=0.69;entryDx=0;entryDy=0;entryPerimeter=0;strokeColor=#A8201A;fontColor=#143642;fillColor=#FAE5C7;startArrow=ERmandOne;startFill=0;endArrow=ERmandOne;endFill=0;exitX=0.46;exitY=0.023;exitDx=0;exitDy=0;exitPerimeter=0;" edge="1" parent="1" source="WESZsXD_C6nbsdCVMqgl-34" target="WESZsXD_C6nbsdCVMqgl-16">
          <mxGeometry relative="1" as="geometry">
            <mxPoint x="330" y="-384.94117647058806" as="sourcePoint" />
            <Array as="points">
              <mxPoint x="275" y="-435" />
            </Array>
          </mxGeometry>
        </mxCell>
      </root>
    </mxGraphModel>
  </diagram>
</mxfile>
